<svg width="25" height="23" viewBox="0 0 25 23" fill="none" xmlns="http://www.w3.org/2000/svg">
<path d="M23.33 0.0726729L7.5 5.72517V14.4752L8.435 14.8089L7.02625 17.6264C6.86601 17.9468 6.77648 18.2978 6.76372 18.6558C6.75096 19.0137 6.81527 19.3702 6.9523 19.7012C7.08932 20.0321 7.29586 20.3298 7.55792 20.5739C7.81999 20.8181 8.13146 21.0031 8.47125 21.1164L13.5763 22.8177C14.1473 23.0039 14.7661 22.9798 15.321 22.7499C15.8759 22.52 16.3304 22.0994 16.6025 21.5639L18.2312 18.3064L23.33 20.1277C23.5185 20.1949 23.7205 20.2159 23.9188 20.1889C24.1172 20.1619 24.3061 20.0876 24.4698 19.9723C24.6335 19.857 24.767 19.7041 24.8593 19.5265C24.9516 19.3488 24.9998 19.1516 25 18.9514V1.24892C24.9998 1.04874 24.9516 0.851525 24.8593 0.673872C24.767 0.496219 24.6335 0.343323 24.4698 0.228049C24.3061 0.112775 24.1172 0.0384937 23.9188 0.011455C23.7205 -0.0155836 23.5185 0.00541105 23.33 0.0726729ZM14.3663 20.4464L9.2625 18.7452L10.8063 15.6564L15.8588 17.4614L14.3663 20.4464ZM2.5 14.4752H5V5.72517H2.5C1.12125 5.72517 0 6.84642 0 8.22517V11.9752C0 13.3539 1.12125 14.4752 2.5 14.4752Z" fill="#7E7E7E"/>
</svg>
